<svg width="256" height="256" viewBox="0 0 256 256" fill="none" xmlns="http://www.w3.org/2000/svg">
<rect width="256" height="256" fill="black"/>
<path d="M40.5 179V96.4H14.6V76.8H87.4V96.4H61.5V179H40.5ZM127.945 180.4C120.759 180.4 114.505 179.187 109.185 176.76C103.865 174.333 99.7586 170.927 96.8653 166.54C93.972 162.153 92.5253 156.973 92.5253 151H113.525C113.525 154.453 114.832 157.207 117.445 159.26C120.152 161.22 123.792 162.2 128.365 162.2C132.752 162.2 136.159 161.22 138.585 159.26C141.105 157.3 142.365 154.593 142.365 151.14C142.365 148.153 141.432 145.587 139.565 143.44C137.699 141.293 135.085 139.847 131.725 139.1L121.365 136.72C112.685 134.667 105.919 130.887 101.065 125.38C96.3053 119.78 93.9253 112.967 93.9253 104.94C93.9253 98.9667 95.2786 93.7867 97.9853 89.4C100.785 84.92 104.705 81.4667 109.745 79.04C114.785 76.6133 120.759 75.4 127.665 75.4C138.119 75.4 146.379 78.0133 152.445 83.24C158.605 88.3733 161.685 95.3267 161.685 104.1H140.685C140.685 100.833 139.519 98.2667 137.185 96.4C134.945 94.5333 131.679 93.6 127.385 93.6C123.372 93.6 120.292 94.5333 118.145 96.4C115.999 98.1733 114.925 100.74 114.925 104.1C114.925 107.087 115.765 109.653 117.445 111.8C119.219 113.853 121.692 115.253 124.865 116L135.785 118.52C144.839 120.573 151.699 124.307 156.365 129.72C161.032 135.04 163.365 141.853 163.365 150.16C163.365 156.133 161.872 161.407 158.885 165.98C155.992 170.553 151.885 174.1 146.565 176.62C141.339 179.14 135.132 180.4 127.945 180.4ZM172.131 179V76.8H206.991C214.177 76.8 220.431 78.1533 225.751 80.86C231.164 83.5667 235.317 87.3467 238.211 92.2C241.197 97.0533 242.691 102.747 242.691 109.28C242.691 115.72 241.197 121.413 238.211 126.36C235.224 131.213 231.071 134.993 225.751 137.7C220.431 140.407 214.177 141.76 206.991 141.76H193.131V179H172.131ZM193.131 122.86H206.991C211.471 122.86 215.017 121.647 217.631 119.22C220.337 116.7 221.691 113.387 221.691 109.28C221.691 105.173 220.337 101.907 217.631 99.48C215.017 96.96 211.471 95.7 206.991 95.7H193.131V122.86Z" fill="white"/>
</svg>
