<svg width="16" height="16" viewBox="0 0 16 16" fill="none" xmlns="http://www.w3.org/2000/svg">
<g clip-path="url(#clip0_3_2)">
<path d="M2.01887 13.5V4.14H0.488867V2.475H5.16887V4.14H3.63887V13.5H2.01887ZM7.86934 13.62C7.42434 13.62 7.05434 13.5475 6.75934 13.4025C6.46434 13.2525 6.23184 13.0375 6.06184 12.7575C5.89184 12.4775 5.76934 12.14 5.69434 11.745C5.62434 11.35 5.58934 10.905 5.58934 10.41L7.17934 10.26C7.17934 10.5 7.18684 10.7325 7.20184 10.9575C7.22184 11.1775 7.25434 11.3775 7.29934 11.5575C7.34934 11.7325 7.41934 11.8725 7.50934 11.9775C7.60434 12.0825 7.72434 12.135 7.86934 12.135C8.10934 12.135 8.27934 12.025 8.37934 11.805C8.47934 11.58 8.52934 11.31 8.52934 10.995C8.52934 10.68 8.44684 10.3525 8.28184 10.0125C8.11684 9.6725 7.91934 9.35 7.68934 9.045C7.29934 8.525 6.95684 8.0425 6.66184 7.5975C6.37184 7.1525 6.14434 6.715 5.97934 6.285C5.81934 5.855 5.73934 5.405 5.73934 4.935C5.73934 4.565 5.78684 4.225 5.88184 3.915C5.97684 3.6 6.11434 3.3275 6.29434 3.0975C6.47934 2.8625 6.70184 2.68 6.96184 2.55C7.22184 2.42 7.51934 2.355 7.85434 2.355C8.26934 2.355 8.61934 2.425 8.90434 2.565C9.19434 2.705 9.42684 2.905 9.60184 3.165C9.78184 3.425 9.91184 3.735 9.99184 4.095C10.0768 4.45 10.1193 4.845 10.1193 5.28L8.52934 5.43C8.52934 5.245 8.51934 5.06 8.49934 4.875C8.48434 4.685 8.45434 4.5125 8.40934 4.3575C8.36434 4.2025 8.29934 4.0775 8.21434 3.9825C8.12934 3.8875 8.01934 3.84 7.88434 3.84C7.67434 3.84 7.52934 3.93 7.44934 4.11C7.36934 4.285 7.32934 4.535 7.32934 4.86C7.32934 5.28 7.44184 5.685 7.66684 6.075C7.89184 6.465 8.19434 6.92 8.57434 7.44C9.02934 8.055 9.39934 8.62 9.68434 9.135C9.97434 9.65 10.1193 10.22 10.1193 10.845C10.1193 11.24 10.0768 11.6075 9.99184 11.9475C9.90684 12.2825 9.77184 12.575 9.58684 12.825C9.40684 13.075 9.17434 13.27 8.88934 13.41C8.60934 13.55 8.26934 13.62 7.86934 13.62ZM10.9877 13.5V2.475H12.6077C13.2227 2.475 13.7352 2.61 14.1452 2.88C14.5602 3.15 14.8702 3.5325 15.0752 4.0275C15.2802 4.5225 15.3827 5.105 15.3827 5.775C15.3827 6.445 15.2752 7.0225 15.0602 7.5075C14.8452 7.9925 14.5302 8.3725 14.1152 8.6475C13.7052 8.9175 13.2027 9.065 12.6077 9.09V13.5H10.9877ZM12.6077 7.44C12.8927 7.44 13.1177 7.385 13.2827 7.275C13.4477 7.16 13.5652 6.98 13.6352 6.735C13.7102 6.49 13.7477 6.175 13.7477 5.79C13.7477 5.4 13.7102 5.0825 13.6352 4.8375C13.5652 4.5925 13.4452 4.4125 13.2752 4.2975C13.1102 4.1825 12.8877 4.125 12.6077 4.125V7.44Z" fill="#6E6E6E"/>
</g>
<defs>
<clipPath id="clip0_3_2">
<rect width="16" height="16" fill="white"/>
</clipPath>
</defs>
</svg>
